<svg id="Layer_1" data-name="Layer 1" xmlns="http://www.w3.org/2000/svg" viewBox="0 0 1328.37 129.59">
  <defs>
    <style>
      .cls-1 {
        fill: none;
        stroke: #231f20;
        stroke-miterlimit: 10;
        stroke-width: 3px;
      }


        @keyframes dash {
            from {
                stroke-dashoffset: 800;
                fill:rgba(0,0,0,0);
                fill: rgba(0, 0, 0, 0)
            }
            to {
            stroke-dashoffset: 0;
            fill: Black;
            }
        }
        path {
            stroke-dasharray: 800;
            animation: dash 5s 0s forwards;
            stroke-linecap:round;
            stroke-linejoin:round;
        }
    </style>
  </defs>
  <title>heading</title>
  <g>
    <path class="cls-1" d="M322.19,34.67l-31,94.67H267.68L246.85,65.23l-21.5,64.11H202L170.84,34.67h22.72l21.37,66.54,22.32-66.54h20.29l21.64,67.08,22-67.08Z" transform="translate(-168.77 -27.49)"/>
    <path class="cls-1" d="M398.33,98.91h-55a17.14,17.14,0,0,0,7,10.69q5.54,3.91,13.79,3.92a27.88,27.88,0,0,0,10.08-1.69,24.34,24.34,0,0,0,8.18-5.35l11.23,12.18q-10.29,11.76-30,11.76a47.5,47.5,0,0,1-21.77-4.8,35.17,35.17,0,0,1-14.61-13.32A36.68,36.68,0,0,1,322.05,93a37.18,37.18,0,0,1,5.07-19.27A35.52,35.52,0,0,1,341.05,60.3a43.18,43.18,0,0,1,39.16-.21A33.63,33.63,0,0,1,393.8,73.28a39.36,39.36,0,0,1,4.94,20Q398.74,93.64,398.33,98.91ZM349,75.51a17.29,17.29,0,0,0-6,11.09h35.85a17.47,17.47,0,0,0-6-11A17.77,17.77,0,0,0,361,71.45,18.17,18.17,0,0,0,349,75.51Z" transform="translate(-168.77 -27.49)"/>
    <path class="cls-1" d="M474.27,60.16a33.55,33.55,0,0,1,13.06,13.12A39.69,39.69,0,0,1,492.06,93a39.69,39.69,0,0,1-4.73,19.68,33.55,33.55,0,0,1-13.06,13.12,37,37,0,0,1-18.46,4.66q-15,0-22.85-9.46v8.38H412.8V29h21.1v35.3q8-8.79,21.91-8.79A37,37,0,0,1,474.27,60.16Zm-8.79,47.47q5.2-5.47,5.21-14.67t-5.21-14.68a19,19,0,0,0-26.64,0q-5.2,5.49-5.21,14.68t5.21,14.67a18.93,18.93,0,0,0,26.64,0Z" transform="translate(-168.77 -27.49)"/>
    <path class="cls-1" d="M545.89,34.67h43q15.4,0,27.25,5.88a44,44,0,0,1,18.39,16.57Q641.11,67.8,641.1,82t-6.56,24.89a44,44,0,0,1-18.39,16.57q-11.83,5.88-27.25,5.88h-43Zm41.92,76.68q14.21,0,22.66-7.91T618.92,82q0-13.52-8.45-21.43t-22.66-7.92h-20v58.7Z" transform="translate(-168.77 -27.49)"/>
    <path class="cls-1" d="M727,98.91h-55a17.14,17.14,0,0,0,7,10.69q5.55,3.91,13.8,3.92a27.86,27.86,0,0,0,10.07-1.69,24.48,24.48,0,0,0,8.19-5.35l11.22,12.18q-10.28,11.76-30,11.76a47.51,47.51,0,0,1-21.78-4.8,35.23,35.23,0,0,1-14.61-13.32A36.77,36.77,0,0,1,650.7,93a37.09,37.09,0,0,1,5.08-19.27A35.46,35.46,0,0,1,669.71,60.3a43.16,43.16,0,0,1,39.15-.21,33.63,33.63,0,0,1,13.59,13.19,39.36,39.36,0,0,1,4.94,20Q727.39,93.64,727,98.91Zm-49.37-23.4a17.28,17.28,0,0,0-6,11.09h35.84a17.45,17.45,0,0,0-6-11,17.81,17.81,0,0,0-11.9-4.13A18.19,18.19,0,0,0,677.62,75.51Z" transform="translate(-168.77 -27.49)"/>
    <path class="cls-1" d="M812.33,56.58l-30.7,72.76H759.85L729.28,56.58h21.78l20.15,49.5L792,56.58Z" transform="translate(-168.77 -27.49)"/>
    <path class="cls-1" d="M889.83,98.91H834.78a17.14,17.14,0,0,0,7,10.69q5.55,3.91,13.8,3.92a27.86,27.86,0,0,0,10.07-1.69,24.48,24.48,0,0,0,8.19-5.35l11.22,12.18q-10.27,11.76-30,11.76a47.51,47.51,0,0,1-21.78-4.8,35.23,35.23,0,0,1-14.61-13.32A36.77,36.77,0,0,1,813.54,93a37.18,37.18,0,0,1,5.08-19.27A35.46,35.46,0,0,1,832.55,60.3a43.16,43.16,0,0,1,39.15-.21,33.63,33.63,0,0,1,13.59,13.19,39.26,39.26,0,0,1,4.94,20Q890.23,93.64,889.83,98.91Zm-49.37-23.4a17.28,17.28,0,0,0-6,11.09h35.84a17.45,17.45,0,0,0-6-11,17.81,17.81,0,0,0-11.9-4.13A18.21,18.21,0,0,0,840.46,75.51Z" transform="translate(-168.77 -27.49)"/>
    <path class="cls-1" d="M904.3,29h21.1V129.34H904.3Z" transform="translate(-168.77 -27.49)"/>
    <path class="cls-1" d="M959,125.62a35.66,35.66,0,0,1-14.26-13.32A36.68,36.68,0,0,1,939.6,93a36.68,36.68,0,0,1,5.14-19.34A35.66,35.66,0,0,1,959,60.3a46.58,46.58,0,0,1,41.19,0,35.82,35.82,0,0,1,14.2,13.32A36.68,36.68,0,0,1,1019.53,93a36.68,36.68,0,0,1-5.14,19.34,35.82,35.82,0,0,1-14.2,13.32,46.58,46.58,0,0,1-41.19,0Zm34-18q5.2-5.47,5.21-14.67T993,78.28a17.57,17.57,0,0,0-13.32-5.47,17.8,17.8,0,0,0-13.39,5.47Q961,83.77,961,93t5.27,14.67a17.77,17.77,0,0,0,13.39,5.48A17.54,17.54,0,0,0,993,107.63Z" transform="translate(-168.77 -27.49)"/>
    <path class="cls-1" d="M1095.07,60.16a33.6,33.6,0,0,1,13,13.12A39.69,39.69,0,0,1,1112.85,93a39.69,39.69,0,0,1-4.73,19.68,33.6,33.6,0,0,1-13,13.12,37.1,37.1,0,0,1-18.46,4.66q-13.93,0-21.92-8.79v34H1033.6v-99h20.15V65q7.85-9.46,22.86-9.46A37.1,37.1,0,0,1,1095.07,60.16Zm-8.79,47.47q5.21-5.47,5.2-14.67t-5.2-14.68a19,19,0,0,0-26.65,0q-5.2,5.49-5.21,14.68t5.21,14.67a18.94,18.94,0,0,0,26.65,0Z" transform="translate(-168.77 -27.49)"/>
    <path class="cls-1" d="M1241.81,63.54q8.06,8.06,8,24.14v41.66h-21.1V90.93q0-8.66-3.58-12.92T1215,73.75q-7.44,0-11.76,4.81t-4.33,14.26v36.52h-21.1V90.93q0-17.18-13.79-17.18-7.31,0-11.64,4.81T1148,92.82v36.52h-21.1V56.58h20.15V65a26.63,26.63,0,0,1,9.94-7,33.52,33.52,0,0,1,12.92-2.43,31.27,31.27,0,0,1,13.93,3,24.75,24.75,0,0,1,10,8.86,29.67,29.67,0,0,1,11.29-8.79,35.5,35.5,0,0,1,14.94-3.11Q1233.77,55.5,1241.81,63.54Z" transform="translate(-168.77 -27.49)"/>
    <path class="cls-1" d="M1340.48,98.91h-55a17.14,17.14,0,0,0,7,10.69q5.55,3.91,13.8,3.92a27.86,27.86,0,0,0,10.07-1.69,24.48,24.48,0,0,0,8.19-5.35l11.22,12.18q-10.27,11.76-30,11.76a47.51,47.51,0,0,1-21.78-4.8,35.23,35.23,0,0,1-14.61-13.32A36.77,36.77,0,0,1,1264.19,93a37.09,37.09,0,0,1,5.08-19.27A35.46,35.46,0,0,1,1283.2,60.3a43.16,43.16,0,0,1,39.15-.21,33.63,33.63,0,0,1,13.59,13.19,39.26,39.26,0,0,1,4.94,20Q1340.88,93.64,1340.48,98.91Zm-49.37-23.4a17.28,17.28,0,0,0-5.95,11.09H1321a17.45,17.45,0,0,0-6-11,17.81,17.81,0,0,0-11.9-4.13A18.21,18.21,0,0,0,1291.11,75.51Z" transform="translate(-168.77 -27.49)"/>
    <path class="cls-1" d="M1421,63.61q8.31,8.11,8.31,24.07v41.66h-21.09V90.93q0-8.66-3.79-12.92t-11-4.26q-8,0-12.71,4.94t-4.73,14.68v36H1355V56.58h20.15V65.1a28,28,0,0,1,10.41-7.1,36.25,36.25,0,0,1,13.66-2.5Q1412.7,55.5,1421,63.61Z" transform="translate(-168.77 -27.49)"/>
    <path class="cls-1" d="M1495.34,125.83a21.71,21.71,0,0,1-7.65,3.44,38.46,38.46,0,0,1-9.53,1.15q-13,0-20.09-6.62t-7.1-19.48V74.43h-11.22V58.2H1451V40.48h21.1V58.2h18.13V74.43h-18.13v29.62c0,3.07.79,5.43,2.37,7.1a8.76,8.76,0,0,0,6.69,2.5,13.61,13.61,0,0,0,8.53-2.7Z" transform="translate(-168.77 -27.49)"/>
  </g>
</svg>
